<svg id="visual" viewBox="0 0 900 900" width="900" height="900" xmlns="http://www.w3.org/2000/svg" xmlns:xlink="http://www.w3.org/1999/xlink" version="1.1"><g stroke-width="1" stroke-linejoin="bevel"><path d="M468.4 432.6L520.8 446.4L496.6 423.4Z" fill="#081a28" stroke="#081a28"></path><path d="M468.4 432.6L518.8 471.6L520.8 446.4Z" fill="#277297" stroke="#277297"></path><path d="M468.4 432.6L468.6 519.6L518.8 471.6Z" fill="#0c2435" stroke="#0c2435"></path><path d="M534.8 383.2L487.6 371.2L496.6 423.4Z" fill="#277297" stroke="#277297"></path><path d="M496.6 423.4L487.6 371.2L468.4 432.6Z" fill="#00101c" stroke="#00101c"></path><path d="M633.1 446.4L534.8 383.2L520.8 446.4Z" fill="#246688" stroke="#246688"></path><path d="M520.8 446.4L534.8 383.2L496.6 423.4Z" fill="#112e42" stroke="#112e42"></path><path d="M394.2 579.1L468.4 539.8L468.6 519.6Z" fill="#19435d" stroke="#19435d"></path><path d="M468.6 519.6L498.6 551.8L518.8 471.6Z" fill="#1d4e6b" stroke="#1d4e6b"></path><path d="M468.4 539.8L498.6 551.8L468.6 519.6Z" fill="#00101c" stroke="#00101c"></path><path d="M375.2 425.4L373.4 457.4L468.4 432.6Z" fill="#1d4e6b" stroke="#1d4e6b"></path><path d="M468.4 432.6L373.4 457.4L468.6 519.6Z" fill="#081a28" stroke="#081a28"></path><path d="M390.2 356.2L375.2 425.4L468.4 432.6Z" fill="#205a7a" stroke="#205a7a"></path><path d="M478.6 600.1L527.8 573.1L498.6 551.8Z" fill="#277297" stroke="#277297"></path><path d="M498.6 551.8L562.8 565.8L518.8 471.6Z" fill="#297ea6" stroke="#297ea6"></path><path d="M518.8 471.6L633.1 446.4L520.8 446.4Z" fill="#0c2435" stroke="#0c2435"></path><path d="M527.8 573.1L562.8 565.8L498.6 551.8Z" fill="#081a28" stroke="#081a28"></path><path d="M487.6 371.2L390.2 356.2L468.4 432.6Z" fill="#297ea6" stroke="#297ea6"></path><path d="M625.1 534.6L633.1 446.4L518.8 471.6Z" fill="#0c2435" stroke="#0c2435"></path><path d="M394.2 579.1L478.6 600.1L468.4 539.8Z" fill="#297ea6" stroke="#297ea6"></path><path d="M468.4 539.8L478.6 600.1L498.6 551.8Z" fill="#0c2435" stroke="#0c2435"></path><path d="M527.8 573.1L630.1 621.1L562.8 565.8Z" fill="#205a7a" stroke="#205a7a"></path><path d="M534.8 383.2L487.6 298.9L487.6 371.2Z" fill="#081a28" stroke="#081a28"></path><path d="M487.6 371.2L487.6 298.9L390.2 356.2Z" fill="#297ea6" stroke="#297ea6"></path><path d="M515.8 236.9L487.6 298.9L602.1 247.9Z" fill="#297ea6" stroke="#297ea6"></path><path d="M562.8 565.8L625.1 534.6L518.8 471.6Z" fill="#15384f" stroke="#15384f"></path><path d="M373.4 457.4L394.2 579.1L468.6 519.6Z" fill="#1d4e6b" stroke="#1d4e6b"></path><path d="M373.4 457.4L324.9 535.8L394.2 579.1Z" fill="#00101c" stroke="#00101c"></path><path d="M306.2 523.6L324.9 535.8L373.4 457.4Z" fill="#205a7a" stroke="#205a7a"></path><path d="M306.2 523.6L373.4 457.4L265.9 447.4Z" fill="#1d4e6b" stroke="#1d4e6b"></path><path d="M487.6 298.9L397.4 293.2L390.2 356.2Z" fill="#19435d" stroke="#19435d"></path><path d="M390.2 356.2L326.9 344.2L375.2 425.4Z" fill="#205a7a" stroke="#205a7a"></path><path d="M654.3 583.8L662.1 530.8L625.1 534.6Z" fill="#277297" stroke="#277297"></path><path d="M625.1 534.6L662.1 530.8L633.1 446.4Z" fill="#0c2435" stroke="#0c2435"></path><path d="M654.3 583.8L625.1 534.6L562.8 565.8Z" fill="#15384f" stroke="#15384f"></path><path d="M397.4 293.2L326.9 344.2L390.2 356.2Z" fill="#297ea6" stroke="#297ea6"></path><path d="M265.9 447.4L373.4 457.4L375.2 425.4Z" fill="#15384f" stroke="#15384f"></path><path d="M630.1 621.1L654.3 583.8L562.8 565.8Z" fill="#246688" stroke="#246688"></path><path d="M340.2 599.8L394.2 579.1L324.9 535.8Z" fill="#15384f" stroke="#15384f"></path><path d="M340.2 599.8L376.4 629.1L394.2 579.1Z" fill="#1d4e6b" stroke="#1d4e6b"></path><path d="M394.2 579.1L376.4 629.1L478.6 600.1Z" fill="#1d4e6b" stroke="#1d4e6b"></path><path d="M577.1 737.3L630.1 621.1L527.8 573.1Z" fill="#112e42" stroke="#112e42"></path><path d="M253.7 610.1L340.2 599.8L324.9 535.8Z" fill="#19435d" stroke="#19435d"></path><path d="M487.6 298.9L440.4 243.9L397.4 293.2Z" fill="#277297" stroke="#277297"></path><path d="M397.4 293.2L318.2 275.9L326.9 344.2Z" fill="#297ea6" stroke="#297ea6"></path><path d="M451.6 228.7L440.4 243.9L487.6 298.9Z" fill="#0c2435" stroke="#0c2435"></path><path d="M577.1 737.3L527.8 573.1L478.6 600.1Z" fill="#112e42" stroke="#112e42"></path><path d="M602.1 247.9L487.6 298.9L534.8 383.2Z" fill="#205a7a" stroke="#205a7a"></path><path d="M440.4 243.9L389.4 259.7L397.4 293.2Z" fill="#19435d" stroke="#19435d"></path><path d="M701.3 369.2L650.1 299.2L633.1 446.4Z" fill="#0c2435" stroke="#0c2435"></path><path d="M633.1 446.4L650.1 299.2L534.8 383.2Z" fill="#205a7a" stroke="#205a7a"></path><path d="M326.9 344.2L265.9 447.4L375.2 425.4Z" fill="#15384f" stroke="#15384f"></path><path d="M306.2 523.6L253.7 610.1L324.9 535.8Z" fill="#1d4e6b" stroke="#1d4e6b"></path><path d="M752.5 516.6L716.3 470.6L662.1 530.8Z" fill="#297ea6" stroke="#297ea6"></path><path d="M662.1 530.8L716.3 470.6L633.1 446.4Z" fill="#15384f" stroke="#15384f"></path><path d="M716.3 470.6L701.3 369.2L633.1 446.4Z" fill="#277297" stroke="#277297"></path><path d="M515.8 236.9L451.6 228.7L487.6 298.9Z" fill="#081a28" stroke="#081a28"></path><path d="M440.4 243.9L378.2 156.7L389.4 259.7Z" fill="#246688" stroke="#246688"></path><path d="M650.1 299.2L602.1 247.9L534.8 383.2Z" fill="#0c2435" stroke="#0c2435"></path><path d="M515.8 236.9L461.6 182.5L451.6 228.7Z" fill="#19435d" stroke="#19435d"></path><path d="M365.2 695.3L456.6 696.3L376.4 629.1Z" fill="#0c2435" stroke="#0c2435"></path><path d="M376.4 629.1L456.6 696.3L478.6 600.1Z" fill="#1d4e6b" stroke="#1d4e6b"></path><path d="M389.4 259.7L318.2 275.9L397.4 293.2Z" fill="#297ea6" stroke="#297ea6"></path><path d="M326.9 344.2L254.7 373.4L265.9 447.4Z" fill="#00101c" stroke="#00101c"></path><path d="M264.9 259.9L318.2 275.9L261.9 254.7Z" fill="#297ea6" stroke="#297ea6"></path><path d="M264.9 259.9L254.7 373.4L326.9 344.2Z" fill="#1d4e6b" stroke="#1d4e6b"></path><path d="M701.3 369.2L672.3 277.9L650.1 299.2Z" fill="#081a28" stroke="#081a28"></path><path d="M650.1 299.2L668.3 255.7L602.1 247.9Z" fill="#00101c" stroke="#00101c"></path><path d="M716.3 470.6L741.5 406.4L701.3 369.2Z" fill="#205a7a" stroke="#205a7a"></path><path d="M701.3 369.2L759.5 319.9L672.3 277.9Z" fill="#19435d" stroke="#19435d"></path><path d="M232.9 481.6L306.2 523.6L265.9 447.4Z" fill="#246688" stroke="#246688"></path><path d="M232.9 481.6L246.7 527.6L306.2 523.6Z" fill="#246688" stroke="#246688"></path><path d="M340.2 599.8L365.2 695.3L376.4 629.1Z" fill="#19435d" stroke="#19435d"></path><path d="M181.7 370.2L232.9 481.6L265.9 447.4Z" fill="#297ea6" stroke="#297ea6"></path><path d="M668.3 255.7L574.8 204.7L602.1 247.9Z" fill="#0c2435" stroke="#0c2435"></path><path d="M602.1 247.9L574.8 204.7L515.8 236.9Z" fill="#246688" stroke="#246688"></path><path d="M741.5 406.4L740.3 363.4L701.3 369.2Z" fill="#1d4e6b" stroke="#1d4e6b"></path><path d="M752.5 222.7L668.3 255.7L672.3 277.9Z" fill="#19435d" stroke="#19435d"></path><path d="M672.3 277.9L668.3 255.7L650.1 299.2Z" fill="#112e42" stroke="#112e42"></path><path d="M654.3 583.8L752.5 516.6L662.1 530.8Z" fill="#1d4e6b" stroke="#1d4e6b"></path><path d="M716.3 470.6L752.5 516.6L741.5 406.4Z" fill="#246688" stroke="#246688"></path><path d="M810.5 320.2L759.5 319.9L740.3 363.4Z" fill="#246688" stroke="#246688"></path><path d="M785.5 577.1L752.5 516.6L654.3 583.8Z" fill="#15384f" stroke="#15384f"></path><path d="M256.9 640.1L365.2 695.3L340.2 599.8Z" fill="#15384f" stroke="#15384f"></path><path d="M571.1 185.7L461.6 182.5L515.8 236.9Z" fill="#112e42" stroke="#112e42"></path><path d="M451.6 228.7L378.2 156.7L440.4 243.9Z" fill="#297ea6" stroke="#297ea6"></path><path d="M685.3 123.5L571.1 185.7L574.8 204.7Z" fill="#0c2435" stroke="#0c2435"></path><path d="M574.8 204.7L571.1 185.7L515.8 236.9Z" fill="#0c2435" stroke="#0c2435"></path><path d="M170.7 522.8L253.7 610.1L246.7 527.6Z" fill="#15384f" stroke="#15384f"></path><path d="M246.7 527.6L253.7 610.1L306.2 523.6Z" fill="#15384f" stroke="#15384f"></path><path d="M442.4 735.3L504.8 738.3L456.6 696.3Z" fill="#19435d" stroke="#19435d"></path><path d="M456.6 696.3L504.8 738.3L478.6 600.1Z" fill="#277297" stroke="#277297"></path><path d="M630.1 621.1L718.3 647.1L654.3 583.8Z" fill="#19435d" stroke="#19435d"></path><path d="M394.2 735.5L442.4 735.3L456.6 696.3Z" fill="#205a7a" stroke="#205a7a"></path><path d="M504.8 738.3L577.1 737.3L478.6 600.1Z" fill="#277297" stroke="#277297"></path><path d="M261.9 254.7L318.2 275.9L339.2 167.5Z" fill="#1d4e6b" stroke="#1d4e6b"></path><path d="M318.2 275.9L264.9 259.9L326.9 344.2Z" fill="#112e42" stroke="#112e42"></path><path d="M254.7 373.4L181.7 370.2L265.9 447.4Z" fill="#1d4e6b" stroke="#1d4e6b"></path><path d="M392.4 737.5L394.2 735.5L365.2 695.3Z" fill="#19435d" stroke="#19435d"></path><path d="M365.2 695.3L394.2 735.5L456.6 696.3Z" fill="#112e42" stroke="#112e42"></path><path d="M595.8 814.5L577.1 737.3L539.8 845.8Z" fill="#081a28" stroke="#081a28"></path><path d="M710.3 721.5L718.3 647.1L630.1 621.1Z" fill="#00101c" stroke="#00101c"></path><path d="M241.9 673.3L256.9 640.1L164.5 674.1Z" fill="#081a28" stroke="#081a28"></path><path d="M253.7 610.1L256.9 640.1L340.2 599.8Z" fill="#205a7a" stroke="#205a7a"></path><path d="M740.3 363.4L759.5 319.9L701.3 369.2Z" fill="#15384f" stroke="#15384f"></path><path d="M685.3 123.5L569.8 150.5L571.1 185.7Z" fill="#00101c" stroke="#00101c"></path><path d="M810.5 320.2L740.3 363.4L741.5 406.4Z" fill="#205a7a" stroke="#205a7a"></path><path d="M315.9 790.8L392.4 737.5L365.2 695.3Z" fill="#297ea6" stroke="#297ea6"></path><path d="M394.2 735.5L392.4 737.5L442.4 735.3Z" fill="#19435d" stroke="#19435d"></path><path d="M339.2 167.5L318.2 275.9L389.4 259.7Z" fill="#205a7a" stroke="#205a7a"></path><path d="M264.9 259.9L241.7 259.9L254.7 373.4Z" fill="#277297" stroke="#277297"></path><path d="M685.3 123.5L574.8 204.7L668.3 255.7Z" fill="#246688" stroke="#246688"></path><path d="M571.1 185.7L509.8 115.2L461.6 182.5Z" fill="#205a7a" stroke="#205a7a"></path><path d="M193.7 210.7L241.7 259.9L261.9 254.7Z" fill="#277297" stroke="#277297"></path><path d="M261.9 254.7L241.7 259.9L264.9 259.9Z" fill="#112e42" stroke="#112e42"></path><path d="M794.5 558.8L796.8 535.8L752.5 516.6Z" fill="#0c2435" stroke="#0c2435"></path><path d="M752.5 516.6L844.8 448.4L741.5 406.4Z" fill="#246688" stroke="#246688"></path><path d="M395.4 116.2L378.2 156.7L461.6 182.5Z" fill="#19435d" stroke="#19435d"></path><path d="M461.6 182.5L378.2 156.7L451.6 228.7Z" fill="#081a28" stroke="#081a28"></path><path d="M718.3 647.1L785.5 577.1L654.3 583.8Z" fill="#205a7a" stroke="#205a7a"></path><path d="M241.7 259.9L181.7 370.2L254.7 373.4Z" fill="#1d4e6b" stroke="#1d4e6b"></path><path d="M232.9 481.6L170.7 522.8L246.7 527.6Z" fill="#112e42" stroke="#112e42"></path><path d="M785.5 577.1L794.5 558.8L752.5 516.6Z" fill="#297ea6" stroke="#297ea6"></path><path d="M378.2 156.7L339.2 167.5L389.4 259.7Z" fill="#277297" stroke="#277297"></path><path d="M595.8 814.5L608.1 759.5L577.1 737.3Z" fill="#0c2435" stroke="#0c2435"></path><path d="M577.1 737.3L608.1 759.5L630.1 621.1Z" fill="#246688" stroke="#246688"></path><path d="M448.6 799.5L504.8 738.3L442.4 735.3Z" fill="#1d4e6b" stroke="#1d4e6b"></path><path d="M121.5 420.4L170.7 522.8L232.9 481.6Z" fill="#00101c" stroke="#00101c"></path><path d="M164.5 674.1L256.9 640.1L253.7 610.1Z" fill="#297ea6" stroke="#297ea6"></path><path d="M256.9 640.1L241.9 673.3L365.2 695.3Z" fill="#081a28" stroke="#081a28"></path><path d="M569.8 150.5L509.8 115.2L571.1 185.7Z" fill="#15384f" stroke="#15384f"></path><path d="M378.2 156.7L338.2 106.2L339.2 167.5Z" fill="#1d4e6b" stroke="#1d4e6b"></path><path d="M718.3 647.1L830.8 666.1L785.5 577.1Z" fill="#205a7a" stroke="#205a7a"></path><path d="M608.1 759.5L710.3 721.5L630.1 621.1Z" fill="#081a28" stroke="#081a28"></path><path d="M844.8 448.4L810.5 320.2L741.5 406.4Z" fill="#00101c" stroke="#00101c"></path><path d="M759.5 319.9L752.5 222.7L672.3 277.9Z" fill="#00101c" stroke="#00101c"></path><path d="M399.4 831.8L448.6 799.5L392.4 737.5Z" fill="#0c2435" stroke="#0c2435"></path><path d="M392.4 737.5L448.6 799.5L442.4 735.3Z" fill="#112e42" stroke="#112e42"></path><path d="M803.8 271.9L752.5 222.7L759.5 319.9Z" fill="#297ea6" stroke="#297ea6"></path><path d="M569.8 150.5L592.1 25.2L509.8 115.2Z" fill="#19435d" stroke="#19435d"></path><path d="M509.8 115.2L395.4 116.2L461.6 182.5Z" fill="#081a28" stroke="#081a28"></path><path d="M710.3 721.5L748.5 696.3L718.3 647.1Z" fill="#112e42" stroke="#112e42"></path><path d="M900 596.8L876.8 519.6L794.5 558.8Z" fill="#0c2435" stroke="#0c2435"></path><path d="M876.8 519.6L844.8 448.4L796.8 535.8Z" fill="#297ea6" stroke="#297ea6"></path><path d="M796.8 535.8L844.8 448.4L752.5 516.6Z" fill="#1d4e6b" stroke="#1d4e6b"></path><path d="M876.8 519.6L796.8 535.8L794.5 558.8Z" fill="#205a7a" stroke="#205a7a"></path><path d="M214.7 715.5L231.7 699.3L164.5 674.1Z" fill="#0c2435" stroke="#0c2435"></path><path d="M241.9 673.3L294.9 777.5L365.2 695.3Z" fill="#15384f" stroke="#15384f"></path><path d="M859.8 304.2L803.8 271.9L810.5 320.2Z" fill="#297ea6" stroke="#297ea6"></path><path d="M810.5 320.2L803.8 271.9L759.5 319.9Z" fill="#112e42" stroke="#112e42"></path><path d="M710.3 721.5L713.3 741.3L748.5 696.3Z" fill="#297ea6" stroke="#297ea6"></path><path d="M608.1 759.5L713.3 741.3L710.3 721.5Z" fill="#00101c" stroke="#00101c"></path><path d="M702.3 792.8L713.3 741.3L608.1 759.5Z" fill="#205a7a" stroke="#205a7a"></path><path d="M438.6 49.2L384.4 98.5L395.4 116.2Z" fill="#246688" stroke="#246688"></path><path d="M395.4 116.2L338.2 106.2L378.2 156.7Z" fill="#0c2435" stroke="#0c2435"></path><path d="M236.9 162.5L193.7 210.7L261.9 254.7Z" fill="#205a7a" stroke="#205a7a"></path><path d="M122.5 310.2L121.5 420.4L181.7 370.2Z" fill="#00101c" stroke="#00101c"></path><path d="M181.7 370.2L121.5 420.4L232.9 481.6Z" fill="#246688" stroke="#246688"></path><path d="M164.5 674.1L231.7 699.3L241.9 673.3Z" fill="#277297" stroke="#277297"></path><path d="M539.8 845.8L577.1 737.3L504.8 738.3Z" fill="#1d4e6b" stroke="#1d4e6b"></path><path d="M231.7 699.3L294.9 777.5L241.9 673.3Z" fill="#0c2435" stroke="#0c2435"></path><path d="M384.4 98.5L338.2 106.2L395.4 116.2Z" fill="#081a28" stroke="#081a28"></path><path d="M241.7 259.9L122.5 310.2L181.7 370.2Z" fill="#246688" stroke="#246688"></path><path d="M294.9 777.5L315.9 790.8L365.2 695.3Z" fill="#19435d" stroke="#19435d"></path><path d="M448.6 799.5L539.8 845.8L504.8 738.3Z" fill="#246688" stroke="#246688"></path><path d="M164.5 674.1L253.7 610.1L170.7 522.8Z" fill="#205a7a" stroke="#205a7a"></path><path d="M231.7 699.3L214.7 715.5L294.9 777.5Z" fill="#00101c" stroke="#00101c"></path><path d="M719.5 131.5L668.3 255.7L752.5 222.7Z" fill="#00101c" stroke="#00101c"></path><path d="M719.5 131.5L685.3 123.5L668.3 255.7Z" fill="#15384f" stroke="#15384f"></path><path d="M509.8 115.2L438.6 49.2L395.4 116.2Z" fill="#205a7a" stroke="#205a7a"></path><path d="M103.5 477.6L114.5 526.8L170.7 522.8Z" fill="#277297" stroke="#277297"></path><path d="M236.9 162.5L261.9 254.7L339.2 167.5Z" fill="#1d4e6b" stroke="#1d4e6b"></path><path d="M399.4 831.8L459.6 838.8L448.6 799.5Z" fill="#277297" stroke="#277297"></path><path d="M338.2 106.2L236.9 162.5L339.2 167.5Z" fill="#081a28" stroke="#081a28"></path><path d="M121.5 420.4L103.5 477.6L170.7 522.8Z" fill="#246688" stroke="#246688"></path><path d="M315.9 790.8L399.4 831.8L392.4 737.5Z" fill="#297ea6" stroke="#297ea6"></path><path d="M900 596.8L794.5 558.8L785.5 577.1Z" fill="#297ea6" stroke="#297ea6"></path><path d="M900 367.4L859.8 304.2L810.5 320.2Z" fill="#205a7a" stroke="#205a7a"></path><path d="M685.3 123.5L643.1 92.5L569.8 150.5Z" fill="#246688" stroke="#246688"></path><path d="M114.5 526.8L164.5 674.1L170.7 522.8Z" fill="#1d4e6b" stroke="#1d4e6b"></path><path d="M539.8 845.8L616.1 827.8L595.8 814.5Z" fill="#246688" stroke="#246688"></path><path d="M595.8 814.5L616.1 827.8L608.1 759.5Z" fill="#277297" stroke="#277297"></path><path d="M828.8 165.7L719.5 131.5L752.5 222.7Z" fill="#205a7a" stroke="#205a7a"></path><path d="M708.5 40.2L647.3 29.2L643.1 92.5Z" fill="#297ea6" stroke="#297ea6"></path><path d="M459.6 838.8L539.8 845.8L448.6 799.5Z" fill="#297ea6" stroke="#297ea6"></path><path d="M120.5 289.9L122.5 310.2L241.7 259.9Z" fill="#205a7a" stroke="#205a7a"></path><path d="M121.5 420.4L85.2 427.4L103.5 477.6Z" fill="#112e42" stroke="#112e42"></path><path d="M900 367.4L810.5 320.2L844.8 448.4Z" fill="#19435d" stroke="#19435d"></path><path d="M803.8 271.9L828.8 165.7L752.5 222.7Z" fill="#277297" stroke="#277297"></path><path d="M616.1 827.8L702.3 792.8L608.1 759.5Z" fill="#1d4e6b" stroke="#1d4e6b"></path><path d="M713.3 741.3L786.8 722.3L748.5 696.3Z" fill="#0c2435" stroke="#0c2435"></path><path d="M748.5 696.3L830.8 666.1L718.3 647.1Z" fill="#277297" stroke="#277297"></path><path d="M744.5 788.5L786.8 722.3L713.3 741.3Z" fill="#0c2435" stroke="#0c2435"></path><path d="M786.8 722.3L830.8 666.1L748.5 696.3Z" fill="#00101c" stroke="#00101c"></path><path d="M118.5 243.7L120.5 289.9L193.7 210.7Z" fill="#112e42" stroke="#112e42"></path><path d="M193.7 210.7L120.5 289.9L241.7 259.9Z" fill="#277297" stroke="#277297"></path><path d="M122.5 310.2L85.2 427.4L121.5 420.4Z" fill="#112e42" stroke="#112e42"></path><path d="M18.2 391.2L85.2 427.4L122.5 310.2Z" fill="#081a28" stroke="#081a28"></path><path d="M103.5 477.6L48.2 521.8L114.5 526.8Z" fill="#297ea6" stroke="#297ea6"></path><path d="M507.8 0L438.6 49.2L509.8 115.2Z" fill="#1d4e6b" stroke="#1d4e6b"></path><path d="M384.4 98.5L318.9 66.2L338.2 106.2Z" fill="#277297" stroke="#277297"></path><path d="M338.2 106.2L258.7 65.2L236.9 162.5Z" fill="#1d4e6b" stroke="#1d4e6b"></path><path d="M900 596.8L900 517.6L876.8 519.6Z" fill="#15384f" stroke="#15384f"></path><path d="M876.8 519.6L900 517.6L844.8 448.4Z" fill="#15384f" stroke="#15384f"></path><path d="M900 517.6L900 367.4L844.8 448.4Z" fill="#1d4e6b" stroke="#1d4e6b"></path><path d="M900 634.1L900 596.8L830.8 666.1Z" fill="#297ea6" stroke="#297ea6"></path><path d="M702.3 792.8L744.5 788.5L713.3 741.3Z" fill="#081a28" stroke="#081a28"></path><path d="M772.5 821.8L744.5 788.5L702.3 792.8Z" fill="#1d4e6b" stroke="#1d4e6b"></path><path d="M379.2 0L318.9 66.2L384.4 98.5Z" fill="#0c2435" stroke="#0c2435"></path><path d="M128.5 173.5L118.5 243.7L193.7 210.7Z" fill="#00101c" stroke="#00101c"></path><path d="M173.7 147.5L193.7 210.7L236.9 162.5Z" fill="#246688" stroke="#246688"></path><path d="M18.2 391.2L32.2 485.6L85.2 427.4Z" fill="#0c2435" stroke="#0c2435"></path><path d="M900 367.4L900 311.2L859.8 304.2Z" fill="#0c2435" stroke="#0c2435"></path><path d="M877.8 187.5L828.8 165.7L803.8 271.9Z" fill="#1d4e6b" stroke="#1d4e6b"></path><path d="M830.8 666.1L900 596.8L785.5 577.1Z" fill="#15384f" stroke="#15384f"></path><path d="M900 634.1L830.8 666.1L900 715.3Z" fill="#297ea6" stroke="#297ea6"></path><path d="M647.3 29.2L592.1 25.2L643.1 92.5Z" fill="#112e42" stroke="#112e42"></path><path d="M643.1 92.5L592.1 25.2L569.8 150.5Z" fill="#246688" stroke="#246688"></path><path d="M264.9 0L258.7 65.2L318.9 66.2Z" fill="#081a28" stroke="#081a28"></path><path d="M258.7 65.2L173.7 147.5L236.9 162.5Z" fill="#277297" stroke="#277297"></path><path d="M274.9 900L369.2 878.8L315.9 790.8Z" fill="#297ea6" stroke="#297ea6"></path><path d="M315.9 790.8L369.2 878.8L399.4 831.8Z" fill="#1d4e6b" stroke="#1d4e6b"></path><path d="M400.4 900L453.6 900L459.6 838.8Z" fill="#1d4e6b" stroke="#1d4e6b"></path><path d="M459.6 838.8L501.8 900L539.8 845.8Z" fill="#15384f" stroke="#15384f"></path><path d="M274.9 900L315.9 790.8L294.9 777.5Z" fill="#277297" stroke="#277297"></path><path d="M380.2 900L369.2 878.8L274.9 900Z" fill="#246688" stroke="#246688"></path><path d="M900 252.9L803.8 271.9L859.8 304.2Z" fill="#246688" stroke="#246688"></path><path d="M708.5 40.2L643.1 92.5L685.3 123.5Z" fill="#277297" stroke="#277297"></path><path d="M453.6 900L501.8 900L459.6 838.8Z" fill="#297ea6" stroke="#297ea6"></path><path d="M539.8 845.8L634.1 900L616.1 827.8Z" fill="#15384f" stroke="#15384f"></path><path d="M735.3 900L772.5 821.8L702.3 792.8Z" fill="#081a28" stroke="#081a28"></path><path d="M842.8 772.5L830.8 666.1L786.8 722.3Z" fill="#0c2435" stroke="#0c2435"></path><path d="M400.4 900L459.6 838.8L399.4 831.8Z" fill="#15384f" stroke="#15384f"></path><path d="M32.2 485.6L48.2 521.8L103.5 477.6Z" fill="#297ea6" stroke="#297ea6"></path><path d="M114.5 526.8L87.5 651.3L164.5 674.1Z" fill="#15384f" stroke="#15384f"></path><path d="M32.2 485.6L103.5 477.6L85.2 427.4Z" fill="#112e42" stroke="#112e42"></path><path d="M56.2 615.1L87.5 651.3L114.5 526.8Z" fill="#297ea6" stroke="#297ea6"></path><path d="M85.5 744.5L184.5 814.8L214.7 715.5Z" fill="#00101c" stroke="#00101c"></path><path d="M708.5 40.2L685.3 123.5L719.5 131.5Z" fill="#112e42" stroke="#112e42"></path><path d="M390.4 0L384.4 98.5L438.6 49.2Z" fill="#19435d" stroke="#19435d"></path><path d="M318.9 66.2L258.7 65.2L338.2 106.2Z" fill="#246688" stroke="#246688"></path><path d="M599.1 0L507.8 0L592.1 25.2Z" fill="#246688" stroke="#246688"></path><path d="M592.1 25.2L507.8 0L509.8 115.2Z" fill="#277297" stroke="#277297"></path><path d="M507.8 0L451.6 0L438.6 49.2Z" fill="#1d4e6b" stroke="#1d4e6b"></path><path d="M369.2 878.8L400.4 900L399.4 831.8Z" fill="#00101c" stroke="#00101c"></path><path d="M900 311.2L900 252.9L859.8 304.2Z" fill="#1d4e6b" stroke="#1d4e6b"></path><path d="M173.7 147.5L128.5 173.5L193.7 210.7Z" fill="#1d4e6b" stroke="#1d4e6b"></path><path d="M68.2 259.9L122.5 310.2L120.5 289.9Z" fill="#0c2435" stroke="#0c2435"></path><path d="M148.5 107.2L128.5 173.5L173.7 147.5Z" fill="#297ea6" stroke="#297ea6"></path><path d="M68.2 259.9L120.5 289.9L118.5 243.7Z" fill="#0c2435" stroke="#0c2435"></path><path d="M48.2 521.8L56.2 615.1L114.5 526.8Z" fill="#1d4e6b" stroke="#1d4e6b"></path><path d="M184.5 814.8L294.9 777.5L214.7 715.5Z" fill="#15384f" stroke="#15384f"></path><path d="M369.2 878.8L380.2 900L400.4 900Z" fill="#205a7a" stroke="#205a7a"></path><path d="M634.1 900L702.3 792.8L616.1 827.8Z" fill="#15384f" stroke="#15384f"></path><path d="M744.5 788.5L842.8 772.5L786.8 722.3Z" fill="#112e42" stroke="#112e42"></path><path d="M0 530.8L56.2 615.1L48.2 521.8Z" fill="#00101c" stroke="#00101c"></path><path d="M451.6 0L390.4 0L438.6 49.2Z" fill="#081a28" stroke="#081a28"></path><path d="M84.2 227.7L68.2 259.9L118.5 243.7Z" fill="#15384f" stroke="#15384f"></path><path d="M128.5 173.5L84.2 227.7L118.5 243.7Z" fill="#1d4e6b" stroke="#1d4e6b"></path><path d="M647.3 29.2L599.1 0L592.1 25.2Z" fill="#246688" stroke="#246688"></path><path d="M842.8 79.2L708.5 40.2L719.5 131.5Z" fill="#277297" stroke="#277297"></path><path d="M647.3 29.2L644.3 0L599.1 0Z" fill="#0c2435" stroke="#0c2435"></path><path d="M390.4 0L379.2 0L384.4 98.5Z" fill="#112e42" stroke="#112e42"></path><path d="M501.8 900L634.1 900L539.8 845.8Z" fill="#205a7a" stroke="#205a7a"></path><path d="M900 252.9L877.8 187.5L803.8 271.9Z" fill="#081a28" stroke="#081a28"></path><path d="M828.8 165.7L842.8 79.2L719.5 131.5Z" fill="#19435d" stroke="#19435d"></path><path d="M900 252.9L900 215.7L877.8 187.5Z" fill="#112e42" stroke="#112e42"></path><path d="M85.5 744.5L164.5 674.1L87.5 651.3Z" fill="#1d4e6b" stroke="#1d4e6b"></path><path d="M85.5 744.5L214.7 715.5L164.5 674.1Z" fill="#1d4e6b" stroke="#1d4e6b"></path><path d="M772.5 821.8L842.8 772.5L744.5 788.5Z" fill="#112e42" stroke="#112e42"></path><path d="M0 306.2L18.2 391.2L122.5 310.2Z" fill="#1d4e6b" stroke="#1d4e6b"></path><path d="M708.5 40.2L644.3 0L647.3 29.2Z" fill="#246688" stroke="#246688"></path><path d="M842.8 772.5L900 715.3L830.8 666.1Z" fill="#205a7a" stroke="#205a7a"></path><path d="M238.7 0L148.5 107.2L258.7 65.2Z" fill="#19435d" stroke="#19435d"></path><path d="M258.7 65.2L148.5 107.2L173.7 147.5Z" fill="#277297" stroke="#277297"></path><path d="M32.2 154.5L0 248.7L84.2 227.7Z" fill="#246688" stroke="#246688"></path><path d="M772.5 821.8L801.8 829.8L842.8 772.5Z" fill="#0c2435" stroke="#0c2435"></path><path d="M842.8 772.5L900 786.5L900 715.3Z" fill="#081a28" stroke="#081a28"></path><path d="M761.5 900L801.8 829.8L772.5 821.8Z" fill="#00101c" stroke="#00101c"></path><path d="M201.7 856.8L274.9 900L294.9 777.5Z" fill="#0c2435" stroke="#0c2435"></path><path d="M0 306.2L0 382.4L18.2 391.2Z" fill="#205a7a" stroke="#205a7a"></path><path d="M18.2 391.2L0 382.4L32.2 485.6Z" fill="#15384f" stroke="#15384f"></path><path d="M32.2 485.6L0 526.6L48.2 521.8Z" fill="#0c2435" stroke="#0c2435"></path><path d="M0 306.2L122.5 310.2L68.2 259.9Z" fill="#15384f" stroke="#15384f"></path><path d="M0 306.2L68.2 259.9L0 302.9Z" fill="#00101c" stroke="#00101c"></path><path d="M184.5 814.8L201.7 856.8L294.9 777.5Z" fill="#205a7a" stroke="#205a7a"></path><path d="M163.7 900L201.7 856.8L184.5 814.8Z" fill="#246688" stroke="#246688"></path><path d="M0 382.4L0 526.6L32.2 485.6Z" fill="#205a7a" stroke="#205a7a"></path><path d="M16.2 658.3L85.5 744.5L87.5 651.3Z" fill="#15384f" stroke="#15384f"></path><path d="M0 526.6L0 530.8L48.2 521.8Z" fill="#112e42" stroke="#112e42"></path><path d="M16.2 658.3L87.5 651.3L56.2 615.1Z" fill="#1d4e6b" stroke="#1d4e6b"></path><path d="M379.2 0L264.9 0L318.9 66.2Z" fill="#0c2435" stroke="#0c2435"></path><path d="M634.1 900L735.3 900L702.3 792.8Z" fill="#15384f" stroke="#15384f"></path><path d="M0 302.9L68.2 259.9L0 248.7Z" fill="#205a7a" stroke="#205a7a"></path><path d="M0 248.7L68.2 259.9L84.2 227.7Z" fill="#1d4e6b" stroke="#1d4e6b"></path><path d="M900 106.5L828.8 165.7L877.8 187.5Z" fill="#297ea6" stroke="#297ea6"></path><path d="M900 106.5L842.8 79.2L828.8 165.7Z" fill="#19435d" stroke="#19435d"></path><path d="M708.5 40.2L785.8 0L644.3 0Z" fill="#112e42" stroke="#112e42"></path><path d="M0 530.8L16.2 658.3L56.2 615.1Z" fill="#297ea6" stroke="#297ea6"></path><path d="M264.9 0L238.7 0L258.7 65.2Z" fill="#00101c" stroke="#00101c"></path><path d="M735.3 900L761.5 900L772.5 821.8Z" fill="#15384f" stroke="#15384f"></path><path d="M900 833.8L900 786.5L842.8 772.5Z" fill="#246688" stroke="#246688"></path><path d="M900 833.8L842.8 772.5L801.8 829.8Z" fill="#00101c" stroke="#00101c"></path><path d="M32.2 154.5L128.5 173.5L148.5 107.2Z" fill="#0c2435" stroke="#0c2435"></path><path d="M32.2 154.5L84.2 227.7L128.5 173.5Z" fill="#277297" stroke="#277297"></path><path d="M900 215.7L900 106.5L877.8 187.5Z" fill="#00101c" stroke="#00101c"></path><path d="M0 530.8L0 673.1L16.2 658.3Z" fill="#205a7a" stroke="#205a7a"></path><path d="M16.2 658.3L0 709.5L85.5 744.5Z" fill="#19435d" stroke="#19435d"></path><path d="M131.5 900L163.7 900L184.5 814.8Z" fill="#277297" stroke="#277297"></path><path d="M802.5 0L785.8 0L842.8 79.2Z" fill="#246688" stroke="#246688"></path><path d="M842.8 79.2L785.8 0L708.5 40.2Z" fill="#00101c" stroke="#00101c"></path><path d="M0 673.1L0 687.3L16.2 658.3Z" fill="#246688" stroke="#246688"></path><path d="M90.2 48.2L32.2 154.5L148.5 107.2Z" fill="#277297" stroke="#277297"></path><path d="M900 0L802.5 0L842.8 79.2Z" fill="#246688" stroke="#246688"></path><path d="M37.2 797.5L184.5 814.8L85.5 744.5Z" fill="#15384f" stroke="#15384f"></path><path d="M201.7 856.8L163.7 900L274.9 900Z" fill="#19435d" stroke="#19435d"></path><path d="M0 687.3L0 709.5L16.2 658.3Z" fill="#277297" stroke="#277297"></path><path d="M855.8 900L900 833.8L801.8 829.8Z" fill="#1d4e6b" stroke="#1d4e6b"></path><path d="M900 106.5L900 59.2L842.8 79.2Z" fill="#112e42" stroke="#112e42"></path><path d="M16.2 783.8L37.2 797.5L85.5 744.5Z" fill="#297ea6" stroke="#297ea6"></path><path d="M127.5 0L90.2 48.2L148.5 107.2Z" fill="#246688" stroke="#246688"></path><path d="M99.2 900L131.5 900L184.5 814.8Z" fill="#277297" stroke="#277297"></path><path d="M761.5 900L855.8 900L801.8 829.8Z" fill="#1d4e6b" stroke="#1d4e6b"></path><path d="M0 709.5L16.2 783.8L85.5 744.5Z" fill="#00101c" stroke="#00101c"></path><path d="M37.2 797.5L99.2 900L184.5 814.8Z" fill="#15384f" stroke="#15384f"></path><path d="M238.7 0L127.5 0L148.5 107.2Z" fill="#081a28" stroke="#081a28"></path><path d="M0 100.2L32.2 154.5L90.2 48.2Z" fill="#15384f" stroke="#15384f"></path><path d="M0 100.2L0 130.5L32.2 154.5Z" fill="#00101c" stroke="#00101c"></path><path d="M32.2 154.5L0 130.5L0 248.7Z" fill="#277297" stroke="#277297"></path><path d="M0 709.5L0 782.8L16.2 783.8Z" fill="#1d4e6b" stroke="#1d4e6b"></path><path d="M16.2 783.8L0 782.8L37.2 797.5Z" fill="#081a28" stroke="#081a28"></path><path d="M0 900L99.2 900L37.2 797.5Z" fill="#297ea6" stroke="#297ea6"></path><path d="M62.2 0L0 100.2L90.2 48.2Z" fill="#246688" stroke="#246688"></path><path d="M855.8 900L900 900L900 833.8Z" fill="#19435d" stroke="#19435d"></path><path d="M900 59.2L900 0L842.8 79.2Z" fill="#246688" stroke="#246688"></path><path d="M127.5 0L62.2 0L90.2 48.2Z" fill="#205a7a" stroke="#205a7a"></path><path d="M0 782.8L0 900L37.2 797.5Z" fill="#15384f" stroke="#15384f"></path><path d="M62.2 0L0 0L0 100.2Z" fill="#1d4e6b" stroke="#1d4e6b"></path></g></svg>